<svg width="13" height="13" viewBox="0 0 13 13" fill="none" xmlns="http://www.w3.org/2000/svg">
<path d="M9.65553 2.34496C9.54114 2.26254 9.40894 2.20825 9.26965 2.18648C9.13036 2.16472 8.98789 2.1761 8.85382 2.2197C8.50015 2.31915 8.13385 2.36642 7.76651 2.35999C7.22365 2.33053 6.69138 2.19789 6.19818 1.96916C5.58889 1.68738 4.92985 1.52901 4.25906 1.50317C2.81098 1.50317 2.2548 2.00424 2.15459 2.07439C2.10664 2.12138 2.06862 2.17754 2.0428 2.23951C2.01698 2.30149 2.00387 2.36802 2.00427 2.43515V10.0213C2.00427 10.1542 2.05706 10.2816 2.15102 10.3756C2.24499 10.4696 2.37244 10.5223 2.50533 10.5223C2.63822 10.5223 2.76567 10.4696 2.85964 10.3756C2.9536 10.2816 3.0064 10.1542 3.0064 10.0213V7.8667C3.40566 7.71383 3.83188 7.64393 4.25906 7.66126C4.80192 7.69073 5.33419 7.82337 5.82739 8.05209C6.43668 8.33387 7.09572 8.49225 7.76651 8.51808C8.37055 8.54089 8.97144 8.42072 9.52024 8.16734C9.66815 8.09785 9.79356 7.98819 9.88215 7.85087C9.97075 7.71355 10.019 7.55409 10.0213 7.39069V3.06149C10.0211 2.92168 9.9879 2.78389 9.92433 2.65936C9.86076 2.53484 9.76866 2.42711 9.65553 2.34496V2.34496Z" fill="white"/>
</svg>
